# 3ds Max Wavefront OBJ Exporter v0.97b - (c)2007 guruware
# File Created: 30.04.2015 23:03:41

mtllib Log.mtl

#
# object Cylinder001
#

v  20.0000 0.0000 -0.0000
v  14.1421 14.1421 -0.0000
v  -0.0000 20.0000 -0.0000
v  -14.1421 14.1421 -0.0000
v  -20.0000 -0.0000 -0.0000
v  -14.1421 -14.1421 -0.0000
v  0.0000 -20.0000 -0.0000
v  14.1421 -14.1421 -0.0000
v  20.0000 -0.0000 236.5580
v  14.1421 14.1421 236.5580
v  -0.0000 20.0000 236.5580
v  -14.1421 14.1421 236.5580
v  -20.0000 -0.0000 236.5580
v  -14.1421 -14.1422 236.5580
v  0.0000 -20.0000 236.5580
v  14.1421 -14.1422 236.5580
v  15.9818 -0.0000 240.2703
v  11.3009 11.3008 240.2703
v  -0.0000 15.9818 240.2703
v  -11.3009 11.3008 240.2703
v  -15.9818 -0.0000 240.2703
v  -11.3009 -11.3009 240.2703
v  -0.0000 -15.9819 240.2703
v  11.3009 -11.3009 240.2703
# 24 vertices

vn 1.0000 -0.0000 -0.0000
vn 0.7071 0.7071 0.0000
vn 0.6572 0.6572 0.3689
vn 0.9295 -0.0000 0.3689
vn 0.7071 0.7071 0.0000
vn -0.0000 1.0000 0.0000
vn -0.0000 0.9295 0.3689
vn 0.6572 0.6572 0.3689
vn -0.0000 1.0000 0.0000
vn -0.7071 0.7071 0.0000
vn -0.6572 0.6572 0.3689
vn -0.0000 0.9295 0.3689
vn -0.7071 0.7071 0.0000
vn -1.0000 -0.0000 -0.0000
vn -0.9295 -0.0000 0.3689
vn -0.6572 0.6572 0.3689
vn -1.0000 -0.0000 -0.0000
vn -0.7071 -0.7071 -0.0000
vn -0.6572 -0.6572 0.3689
vn -0.9295 -0.0000 0.3689
vn -0.7071 -0.7071 -0.0000
vn 0.0000 -1.0000 -0.0000
vn -0.0000 -0.9295 0.3689
vn -0.6572 -0.6572 0.3689
vn 0.0000 -1.0000 -0.0000
vn 0.7071 -0.7071 -0.0000
vn 0.6572 -0.6572 0.3689
vn -0.0000 -0.9295 0.3689
vn 0.7071 -0.7071 -0.0000
vn 1.0000 -0.0000 -0.0000
vn 0.9295 -0.0000 0.3689
vn 0.6572 -0.6572 0.3689
vn 0.3095 0.3095 0.8991
vn -0.0000 0.4377 0.8991
vn -0.3095 0.3095 0.8991
vn 0.3095 -0.3095 0.8991
vn -0.3095 0.3095 0.8991
vn -0.4377 -0.0000 0.8991
vn -0.3095 -0.3095 0.8991
vn 0.3095 -0.3095 0.8991
vn -0.3095 -0.3095 0.8991
vn -0.0000 -0.4377 0.8991
vn 0.3095 -0.3095 0.8991
vn 0.4377 -0.0000 0.8991
vn 0.3095 0.3095 0.8991
vn 0.3095 -0.3095 0.8991
vn 0.6572 0.6572 0.3689
vn 0.3095 0.3095 0.8991
vn 0.4377 -0.0000 0.8991
vn 0.9295 -0.0000 0.3689
vn -0.0000 0.9295 0.3689
vn -0.0000 0.4377 0.8991
vn 0.3095 0.3095 0.8991
vn 0.6572 0.6572 0.3689
vn -0.6572 0.6572 0.3689
vn -0.3095 0.3095 0.8991
vn -0.0000 0.4377 0.8991
vn -0.0000 0.9295 0.3689
vn -0.9295 -0.0000 0.3689
vn -0.4377 -0.0000 0.8991
vn -0.3095 0.3095 0.8991
vn -0.6572 0.6572 0.3689
vn -0.6572 -0.6572 0.3689
vn -0.3095 -0.3095 0.8991
vn -0.4377 -0.0000 0.8991
vn -0.9295 -0.0000 0.3689
vn -0.0000 -0.9295 0.3689
vn -0.0000 -0.4377 0.8991
vn -0.3095 -0.3095 0.8991
vn -0.6572 -0.6572 0.3689
vn 0.6572 -0.6572 0.3689
vn 0.3095 -0.3095 0.8991
vn -0.0000 -0.4377 0.8991
vn -0.0000 -0.9295 0.3689
vn 0.9295 -0.0000 0.3689
vn 0.4377 -0.0000 0.8991
vn 0.3095 -0.3095 0.8991
vn 0.6572 -0.6572 0.3689
# 78 vertex normals

vt 0.4650 0.9980 -0.0000
vt 0.0020 0.9980 -0.0001
vt 0.0020 0.0020 -0.0001
vt 0.4650 0.0020 -0.0001
vt 0.0681 0.9980 -0.0001
vt 0.0681 0.0020 -0.0001
vt 0.1343 0.9980 -0.0001
vt 0.1343 0.0020 -0.0000
vt 0.2004 0.9980 -0.0000
vt 0.2004 0.0020 0.0001
vt 0.2665 0.9980 0.0001
vt 0.2665 0.0020 0.0001
vt 0.3327 0.9980 0.0001
vt 0.3327 0.0020 0.0001
vt 0.3988 0.9980 0.0001
vt 0.3988 0.0020 0.0000
vt 0.7106 0.0935 0.0000
vt 0.6892 0.1451 0.0000
vt 0.6375 0.1666 0.0000
vt 0.5858 0.1451 0.0000
vt 0.5644 0.0935 0.0000
vt 0.5858 0.0418 0.0000
vt 0.6375 0.0204 0.0000
vt 0.6892 0.0418 0.0000
vt 0.7022 0.1581 0.0000
vt 0.7290 0.0935 0.0000
vt 0.6375 0.1849 0.0000
vt 0.5729 0.1581 0.0000
vt 0.5461 0.0935 0.0000
vt 0.5729 0.0288 0.0000
vt 0.6375 0.0020 0.0000
vt 0.7022 0.0288 0.0000
vt 0.5311 0.9980 -0.0001
vt 0.5311 0.0020 -0.0001
# 34 texture coords

g Cylinder001
usemtl wire_007007007
s 1
f 1/1/1 2/33/2 10/34/3 9/4/4 
f 2/2/5 3/5/6 11/6/7 10/3/8 
f 3/5/9 4/7/10 12/8/11 11/6/12 
f 4/7/13 5/9/14 13/10/15 12/8/16 
f 5/9/17 6/11/18 14/12/19 13/10/20 
f 6/11/21 7/13/22 15/14/23 14/12/24 
f 7/13/25 8/15/26 16/16/27 15/14/28 
f 8/15/29 1/1/30 9/4/31 16/16/32 
f 18/18/33 19/19/34 20/20/35 24/24/36 
f 20/20/37 21/21/38 22/22/39 24/24/40 
f 22/22/41 23/23/42 24/24/43 
f 17/17/44 18/18/45 24/24/46 
f 10/25/47 18/18/48 17/17/49 9/26/50 
f 11/27/51 19/19/52 18/18/53 10/25/54 
f 12/28/55 20/20/56 19/19/57 11/27/58 
f 13/29/59 21/21/60 20/20/61 12/28/62 
f 14/30/63 22/22/64 21/21/65 13/29/66 
f 15/31/67 23/23/68 22/22/69 14/30/70 
f 16/32/71 24/24/72 23/23/73 15/31/74 
f 9/26/75 17/17/76 24/24/77 16/32/78 
# 18 polygons - 2 triangles

